<?xml version="1.0" encoding="utf-8"?>
<svg xmlns="http://www.w3.org/2000/svg" version="1.1" width="1000" height="800">

<text x="200" y="130" fill="black" >A</text>
<circle cx="200" cy="100" r="10" fill="black" />
<text x="600" y="130" fill="black" >B</text>
<circle cx="600" cy="100" r="10" fill="black" />
<text x="100" y="230" fill="black" >C</text>
<circle cx="100" cy="200" r="10" fill="black" />
<text x="300" y="230" fill="black" >D</text>
<circle cx="300" cy="200" r="10" fill="black" />
<text x="400" y="230" fill="black" >E</text>
<circle cx="400" cy="200" r="10" fill="black" />
<text x="500" y="230" fill="black" >F</text>
<circle cx="500" cy="200" r="10" fill="black" />
<text x="700" y="230" fill="black" >G</text>
<circle cx="700" cy="200" r="10" fill="black" />
<text x="200" y="330" fill="black" >H</text>
<circle cx="200" cy="300" r="10" fill="black" />
<text x="600" y="330" fill="black" >I</text>
<circle cx="600" cy="300" r="10" fill="black" />
<line x1="200" y1="100" x2="300" y2="200" stroke="black" />
<line x1="600" y1="100" x2="500" y2="200" stroke="black" />
<line x1="100" y1="200" x2="300" y2="200" stroke="black" />
<line x1="300" y1="200" x2="400" y2="200" stroke="black" />
<line x1="400" y1="200" x2="500" y2="200" stroke="black" />
<line x1="500" y1="200" x2="700" y2="200" stroke="black" />
<line x1="200" y1="300" x2="300" y2="200" stroke="black" />
<line x1="600" y1="300" x2="500" y2="200" stroke="black" />


</svg>
